<svg width="24" height="24" viewBox="0 0 24 24" fill="none" xmlns="http://www.w3.org/2000/svg">
<path d="M11.75 22.47C11.12 22.47 10.53 22.2301 10.09 21.7801L8.57001 20.2601C8.45001 20.1401 8.13 20.0101 7.97 20.0101H5.81C4.51 20.0101 3.45999 18.96 3.45999 17.66V15.5001C3.45999 15.3401 3.32999 15.0201 3.20999 14.9001L1.69 13.3801C1.25 12.9401 1 12.35 1 11.72C1 11.09 1.24 10.5 1.69 10.06L3.20999 8.54001C3.32999 8.42001 3.45999 8.10003 3.45999 7.94003V5.78012C3.45999 4.48012 4.51 3.43002 5.81 3.43002H7.97C8.13 3.43002 8.45001 3.30002 8.57001 3.18002L10.09 1.66C10.97 0.78 12.53 0.78 13.41 1.66L14.93 3.18002C15.05 3.30002 15.37 3.43002 15.53 3.43002H17.69C18.99 3.43002 20.04 4.48012 20.04 5.78012V7.94003C20.04 8.10003 20.17 8.42001 20.29 8.54001L21.81 10.06C22.25 10.5 22.5 11.09 22.5 11.72C22.5 12.35 22.26 12.9401 21.81 13.3801L20.29 14.9001C20.17 15.0201 20.04 15.3401 20.04 15.5001V17.66C20.04 18.96 18.99 20.0101 17.69 20.0101H15.53C15.37 20.0101 15.05 20.1401 14.93 20.2601L13.41 21.7801C12.97 22.2301 12.38 22.47 11.75 22.47ZM4.26999 13.84C4.66999 14.24 4.95999 14.9401 4.95999 15.5001V17.66C4.95999 18.13 5.34 18.5101 5.81 18.5101H7.97C8.53 18.5101 9.23001 18.8 9.63 19.2L11.15 20.72C11.47 21.04 12.03 21.04 12.35 20.72L13.87 19.2C14.27 18.8 14.97 18.5101 15.53 18.5101H17.69C18.16 18.5101 18.54 18.13 18.54 17.66V15.5001C18.54 14.9401 18.83 14.24 19.23 13.84L20.75 12.32C20.91 12.16 21 11.95 21 11.72C21 11.49 20.91 11.2801 20.75 11.1201L19.23 9.60007C18.83 9.20007 18.54 8.50003 18.54 7.94003V5.78012C18.54 5.31012 18.16 4.93002 17.69 4.93002H15.53C14.97 4.93002 14.27 4.64008 13.87 4.24008L12.35 2.72006C12.03 2.40006 11.47 2.40006 11.15 2.72006L9.63 4.24008C9.23001 4.64008 8.53 4.93002 7.97 4.93002H5.81C5.34 4.93002 4.95999 5.31012 4.95999 5.78012V7.94003C4.95999 8.50003 4.66999 9.20007 4.26999 9.60007L2.75 11.1201C2.59 11.2801 2.5 11.49 2.5 11.72C2.5 11.95 2.59 12.16 2.75 12.32L4.26999 13.84Z" fill="#9197B3"/>
<path d="M15.0002 16C14.4402 16 13.9902 15.55 13.9902 15C13.9902 14.45 14.4402 14 14.9902 14C15.5402 14 15.9902 14.45 15.9902 15C15.9902 15.55 15.5502 16 15.0002 16Z" fill="#9197B3"/>
<path d="M9.01001 10C8.45001 10 8 9.55 8 9C8 8.45 8.45 8 9 8C9.55 8 10 8.45 10 9C10 9.55 9.56001 10 9.01001 10Z" fill="#9197B3"/>
<path d="M8.99945 15.7495C8.80945 15.7495 8.61945 15.6795 8.46945 15.5295C8.17945 15.2395 8.17945 14.7595 8.46945 14.4695L14.4695 8.46945C14.7595 8.17945 15.2395 8.17945 15.5295 8.46945C15.8195 8.75945 15.8195 9.23951 15.5295 9.52951L9.52945 15.5295C9.37945 15.6795 9.18945 15.7495 8.99945 15.7495Z" fill="#9197B3"/>
</svg>
